<mxfile host="app.diagrams.net" agent="Mozilla/5.0 (Windows NT 10.0; Win64; x64) AppleWebKit/537.36 (KHTML, like Gecko) Chrome/136.0.0.0 Safari/537.36" version="27.0.6">
  <diagram name="Страница — 1" id="o6EN9a6bm2n5t95lFAL9">
    <mxGraphModel dx="1042" dy="588" grid="1" gridSize="10" guides="1" tooltips="1" connect="1" arrows="1" fold="1" page="1" pageScale="1" pageWidth="827" pageHeight="1169" math="0" shadow="0">
      <root>
        <mxCell id="0" />
        <mxCell id="1" parent="0" />
        <mxCell id="czxN18Cdv0f-kb_h5mWc-13" value="" style="edgeStyle=orthogonalEdgeStyle;rounded=0;orthogonalLoop=1;jettySize=auto;html=1;" edge="1" parent="1" source="czxN18Cdv0f-kb_h5mWc-1" target="czxN18Cdv0f-kb_h5mWc-3">
          <mxGeometry relative="1" as="geometry" />
        </mxCell>
        <mxCell id="czxN18Cdv0f-kb_h5mWc-1" value="" style="ellipse;html=1;shape=startState;fillColor=#000000;strokeColor=#000000;" vertex="1" parent="1">
          <mxGeometry x="380" y="30" width="30" height="30" as="geometry" />
        </mxCell>
        <mxCell id="czxN18Cdv0f-kb_h5mWc-12" style="edgeStyle=orthogonalEdgeStyle;rounded=0;orthogonalLoop=1;jettySize=auto;html=1;entryX=0;entryY=0.5;entryDx=0;entryDy=0;" edge="1" parent="1" source="czxN18Cdv0f-kb_h5mWc-3" target="czxN18Cdv0f-kb_h5mWc-5">
          <mxGeometry relative="1" as="geometry" />
        </mxCell>
        <mxCell id="czxN18Cdv0f-kb_h5mWc-3" value="Зібрати транзакції з пулу" style="html=1;whiteSpace=wrap;" vertex="1" parent="1">
          <mxGeometry x="340" y="90" width="110" height="50" as="geometry" />
        </mxCell>
        <mxCell id="czxN18Cdv0f-kb_h5mWc-7" style="edgeStyle=orthogonalEdgeStyle;rounded=0;orthogonalLoop=1;jettySize=auto;html=1;exitX=0.5;exitY=1;exitDx=0;exitDy=0;entryX=0.5;entryY=0;entryDx=0;entryDy=0;" edge="1" parent="1" source="czxN18Cdv0f-kb_h5mWc-5" target="czxN18Cdv0f-kb_h5mWc-6">
          <mxGeometry relative="1" as="geometry" />
        </mxCell>
        <mxCell id="czxN18Cdv0f-kb_h5mWc-5" value="Обрати валідатора PoS" style="html=1;whiteSpace=wrap;" vertex="1" parent="1">
          <mxGeometry x="490" y="90" width="110" height="50" as="geometry" />
        </mxCell>
        <mxCell id="czxN18Cdv0f-kb_h5mWc-14" value="" style="edgeStyle=orthogonalEdgeStyle;rounded=0;orthogonalLoop=1;jettySize=auto;html=1;" edge="1" parent="1" source="czxN18Cdv0f-kb_h5mWc-6" target="czxN18Cdv0f-kb_h5mWc-9">
          <mxGeometry relative="1" as="geometry" />
        </mxCell>
        <mxCell id="czxN18Cdv0f-kb_h5mWc-6" value="Створити новий блок з транзакціями" style="html=1;whiteSpace=wrap;" vertex="1" parent="1">
          <mxGeometry x="490" y="170" width="110" height="50" as="geometry" />
        </mxCell>
        <mxCell id="czxN18Cdv0f-kb_h5mWc-11" style="edgeStyle=orthogonalEdgeStyle;rounded=0;orthogonalLoop=1;jettySize=auto;html=1;exitX=0.5;exitY=1;exitDx=0;exitDy=0;" edge="1" parent="1" source="czxN18Cdv0f-kb_h5mWc-9" target="czxN18Cdv0f-kb_h5mWc-10">
          <mxGeometry relative="1" as="geometry" />
        </mxCell>
        <mxCell id="czxN18Cdv0f-kb_h5mWc-9" value="Обчислити хеш" style="html=1;whiteSpace=wrap;" vertex="1" parent="1">
          <mxGeometry x="340" y="170" width="110" height="50" as="geometry" />
        </mxCell>
        <mxCell id="czxN18Cdv0f-kb_h5mWc-17" value="" style="edgeStyle=orthogonalEdgeStyle;rounded=0;orthogonalLoop=1;jettySize=auto;html=1;" edge="1" parent="1" source="czxN18Cdv0f-kb_h5mWc-10" target="czxN18Cdv0f-kb_h5mWc-15">
          <mxGeometry relative="1" as="geometry" />
        </mxCell>
        <mxCell id="czxN18Cdv0f-kb_h5mWc-18" value="" style="edgeStyle=orthogonalEdgeStyle;rounded=0;orthogonalLoop=1;jettySize=auto;html=1;" edge="1" parent="1" source="czxN18Cdv0f-kb_h5mWc-10" target="czxN18Cdv0f-kb_h5mWc-16">
          <mxGeometry relative="1" as="geometry" />
        </mxCell>
        <mxCell id="czxN18Cdv0f-kb_h5mWc-10" value="Чи валідний блок?" style="shape=rhombus;perimeter=rhombusPerimeter;whiteSpace=wrap;html=1;align=center;" vertex="1" parent="1">
          <mxGeometry x="332.5" y="240" width="125" height="70" as="geometry" />
        </mxCell>
        <mxCell id="czxN18Cdv0f-kb_h5mWc-20" style="edgeStyle=orthogonalEdgeStyle;rounded=0;orthogonalLoop=1;jettySize=auto;html=1;exitX=0;exitY=0.5;exitDx=0;exitDy=0;entryX=1;entryY=0.5;entryDx=0;entryDy=0;" edge="1" parent="1" source="czxN18Cdv0f-kb_h5mWc-15" target="czxN18Cdv0f-kb_h5mWc-19">
          <mxGeometry relative="1" as="geometry" />
        </mxCell>
        <mxCell id="czxN18Cdv0f-kb_h5mWc-15" value="Зберегти в LevelDB" style="html=1;whiteSpace=wrap;" vertex="1" parent="1">
          <mxGeometry x="190" y="250" width="110" height="50" as="geometry" />
        </mxCell>
        <mxCell id="czxN18Cdv0f-kb_h5mWc-22" value="" style="edgeStyle=orthogonalEdgeStyle;rounded=0;orthogonalLoop=1;jettySize=auto;html=1;" edge="1" parent="1" source="czxN18Cdv0f-kb_h5mWc-16" target="czxN18Cdv0f-kb_h5mWc-21">
          <mxGeometry relative="1" as="geometry" />
        </mxCell>
        <mxCell id="czxN18Cdv0f-kb_h5mWc-16" value="Відхилити блок" style="html=1;whiteSpace=wrap;" vertex="1" parent="1">
          <mxGeometry x="490" y="250" width="110" height="50" as="geometry" />
        </mxCell>
        <mxCell id="czxN18Cdv0f-kb_h5mWc-19" value="" style="ellipse;html=1;shape=endState;fillColor=#000000;strokeColor=#000000;" vertex="1" parent="1">
          <mxGeometry x="140" y="260" width="30" height="30" as="geometry" />
        </mxCell>
        <mxCell id="czxN18Cdv0f-kb_h5mWc-21" value="" style="ellipse;html=1;shape=endState;fillColor=#000000;strokeColor=#000000;" vertex="1" parent="1">
          <mxGeometry x="620" y="260" width="30" height="30" as="geometry" />
        </mxCell>
      </root>
    </mxGraphModel>
  </diagram>
</mxfile>
